G75*
%MOIN*%
%OFA0B0*%
%FSLAX24Y24*%
%IPPOS*%
%LPD*%
%AMOC8*
5,1,8,0,0,1.08239X$1,22.5*
%
%ADD10C,0.0000*%
%ADD11C,0.0030*%
%ADD12C,0.0050*%
%ADD13C,0.0040*%
%ADD14C,0.0060*%
%ADD15C,0.0100*%
D10*
X007700Y000500D02*
X007700Y021496D01*
X030070Y021496D01*
X030070Y000500D01*
X007700Y000500D01*
X007570Y001500D02*
X007572Y001550D01*
X007578Y001600D01*
X007588Y001649D01*
X007602Y001697D01*
X007619Y001744D01*
X007640Y001789D01*
X007665Y001833D01*
X007693Y001874D01*
X007725Y001913D01*
X007759Y001950D01*
X007796Y001984D01*
X007836Y002014D01*
X007878Y002041D01*
X007922Y002065D01*
X007968Y002086D01*
X008015Y002102D01*
X008063Y002115D01*
X008113Y002124D01*
X008162Y002129D01*
X008213Y002130D01*
X008263Y002127D01*
X008312Y002120D01*
X008361Y002109D01*
X008409Y002094D01*
X008455Y002076D01*
X008500Y002054D01*
X008543Y002028D01*
X008584Y001999D01*
X008623Y001967D01*
X008659Y001932D01*
X008691Y001894D01*
X008721Y001854D01*
X008748Y001811D01*
X008771Y001767D01*
X008790Y001721D01*
X008806Y001673D01*
X008818Y001624D01*
X008826Y001575D01*
X008830Y001525D01*
X008830Y001475D01*
X008826Y001425D01*
X008818Y001376D01*
X008806Y001327D01*
X008790Y001279D01*
X008771Y001233D01*
X008748Y001189D01*
X008721Y001146D01*
X008691Y001106D01*
X008659Y001068D01*
X008623Y001033D01*
X008584Y001001D01*
X008543Y000972D01*
X008500Y000946D01*
X008455Y000924D01*
X008409Y000906D01*
X008361Y000891D01*
X008312Y000880D01*
X008263Y000873D01*
X008213Y000870D01*
X008162Y000871D01*
X008113Y000876D01*
X008063Y000885D01*
X008015Y000898D01*
X007968Y000914D01*
X007922Y000935D01*
X007878Y000959D01*
X007836Y000986D01*
X007796Y001016D01*
X007759Y001050D01*
X007725Y001087D01*
X007693Y001126D01*
X007665Y001167D01*
X007640Y001211D01*
X007619Y001256D01*
X007602Y001303D01*
X007588Y001351D01*
X007578Y001400D01*
X007572Y001450D01*
X007570Y001500D01*
X008559Y003600D02*
X008561Y003648D01*
X008567Y003696D01*
X008577Y003743D01*
X008590Y003789D01*
X008608Y003834D01*
X008628Y003878D01*
X008653Y003920D01*
X008681Y003959D01*
X008711Y003996D01*
X008745Y004030D01*
X008782Y004062D01*
X008820Y004091D01*
X008861Y004116D01*
X008904Y004138D01*
X008949Y004156D01*
X008995Y004170D01*
X009042Y004181D01*
X009090Y004188D01*
X009138Y004191D01*
X009186Y004190D01*
X009234Y004185D01*
X009282Y004176D01*
X009328Y004164D01*
X009373Y004147D01*
X009417Y004127D01*
X009459Y004104D01*
X009499Y004077D01*
X009537Y004047D01*
X009572Y004014D01*
X009604Y003978D01*
X009634Y003940D01*
X009660Y003899D01*
X009682Y003856D01*
X009702Y003812D01*
X009717Y003767D01*
X009729Y003720D01*
X009737Y003672D01*
X009741Y003624D01*
X009741Y003576D01*
X009737Y003528D01*
X009729Y003480D01*
X009717Y003433D01*
X009702Y003388D01*
X009682Y003344D01*
X009660Y003301D01*
X009634Y003260D01*
X009604Y003222D01*
X009572Y003186D01*
X009537Y003153D01*
X009499Y003123D01*
X009459Y003096D01*
X009417Y003073D01*
X009373Y003053D01*
X009328Y003036D01*
X009282Y003024D01*
X009234Y003015D01*
X009186Y003010D01*
X009138Y003009D01*
X009090Y003012D01*
X009042Y003019D01*
X008995Y003030D01*
X008949Y003044D01*
X008904Y003062D01*
X008861Y003084D01*
X008820Y003109D01*
X008782Y003138D01*
X008745Y003170D01*
X008711Y003204D01*
X008681Y003241D01*
X008653Y003280D01*
X008628Y003322D01*
X008608Y003366D01*
X008590Y003411D01*
X008577Y003457D01*
X008567Y003504D01*
X008561Y003552D01*
X008559Y003600D01*
X015659Y003600D02*
X015661Y003648D01*
X015667Y003696D01*
X015677Y003743D01*
X015690Y003789D01*
X015708Y003834D01*
X015728Y003878D01*
X015753Y003920D01*
X015781Y003959D01*
X015811Y003996D01*
X015845Y004030D01*
X015882Y004062D01*
X015920Y004091D01*
X015961Y004116D01*
X016004Y004138D01*
X016049Y004156D01*
X016095Y004170D01*
X016142Y004181D01*
X016190Y004188D01*
X016238Y004191D01*
X016286Y004190D01*
X016334Y004185D01*
X016382Y004176D01*
X016428Y004164D01*
X016473Y004147D01*
X016517Y004127D01*
X016559Y004104D01*
X016599Y004077D01*
X016637Y004047D01*
X016672Y004014D01*
X016704Y003978D01*
X016734Y003940D01*
X016760Y003899D01*
X016782Y003856D01*
X016802Y003812D01*
X016817Y003767D01*
X016829Y003720D01*
X016837Y003672D01*
X016841Y003624D01*
X016841Y003576D01*
X016837Y003528D01*
X016829Y003480D01*
X016817Y003433D01*
X016802Y003388D01*
X016782Y003344D01*
X016760Y003301D01*
X016734Y003260D01*
X016704Y003222D01*
X016672Y003186D01*
X016637Y003153D01*
X016599Y003123D01*
X016559Y003096D01*
X016517Y003073D01*
X016473Y003053D01*
X016428Y003036D01*
X016382Y003024D01*
X016334Y003015D01*
X016286Y003010D01*
X016238Y003009D01*
X016190Y003012D01*
X016142Y003019D01*
X016095Y003030D01*
X016049Y003044D01*
X016004Y003062D01*
X015961Y003084D01*
X015920Y003109D01*
X015882Y003138D01*
X015845Y003170D01*
X015811Y003204D01*
X015781Y003241D01*
X015753Y003280D01*
X015728Y003322D01*
X015708Y003366D01*
X015690Y003411D01*
X015677Y003457D01*
X015667Y003504D01*
X015661Y003552D01*
X015659Y003600D01*
X028070Y014500D02*
X028072Y014550D01*
X028078Y014600D01*
X028088Y014649D01*
X028102Y014697D01*
X028119Y014744D01*
X028140Y014789D01*
X028165Y014833D01*
X028193Y014874D01*
X028225Y014913D01*
X028259Y014950D01*
X028296Y014984D01*
X028336Y015014D01*
X028378Y015041D01*
X028422Y015065D01*
X028468Y015086D01*
X028515Y015102D01*
X028563Y015115D01*
X028613Y015124D01*
X028662Y015129D01*
X028713Y015130D01*
X028763Y015127D01*
X028812Y015120D01*
X028861Y015109D01*
X028909Y015094D01*
X028955Y015076D01*
X029000Y015054D01*
X029043Y015028D01*
X029084Y014999D01*
X029123Y014967D01*
X029159Y014932D01*
X029191Y014894D01*
X029221Y014854D01*
X029248Y014811D01*
X029271Y014767D01*
X029290Y014721D01*
X029306Y014673D01*
X029318Y014624D01*
X029326Y014575D01*
X029330Y014525D01*
X029330Y014475D01*
X029326Y014425D01*
X029318Y014376D01*
X029306Y014327D01*
X029290Y014279D01*
X029271Y014233D01*
X029248Y014189D01*
X029221Y014146D01*
X029191Y014106D01*
X029159Y014068D01*
X029123Y014033D01*
X029084Y014001D01*
X029043Y013972D01*
X029000Y013946D01*
X028955Y013924D01*
X028909Y013906D01*
X028861Y013891D01*
X028812Y013880D01*
X028763Y013873D01*
X028713Y013870D01*
X028662Y013871D01*
X028613Y013876D01*
X028563Y013885D01*
X028515Y013898D01*
X028468Y013914D01*
X028422Y013935D01*
X028378Y013959D01*
X028336Y013986D01*
X028296Y014016D01*
X028259Y014050D01*
X028225Y014087D01*
X028193Y014126D01*
X028165Y014167D01*
X028140Y014211D01*
X028119Y014256D01*
X028102Y014303D01*
X028088Y014351D01*
X028078Y014400D01*
X028072Y014450D01*
X028070Y014500D01*
X027359Y023000D02*
X027361Y023048D01*
X027367Y023096D01*
X027377Y023143D01*
X027390Y023189D01*
X027408Y023234D01*
X027428Y023278D01*
X027453Y023320D01*
X027481Y023359D01*
X027511Y023396D01*
X027545Y023430D01*
X027582Y023462D01*
X027620Y023491D01*
X027661Y023516D01*
X027704Y023538D01*
X027749Y023556D01*
X027795Y023570D01*
X027842Y023581D01*
X027890Y023588D01*
X027938Y023591D01*
X027986Y023590D01*
X028034Y023585D01*
X028082Y023576D01*
X028128Y023564D01*
X028173Y023547D01*
X028217Y023527D01*
X028259Y023504D01*
X028299Y023477D01*
X028337Y023447D01*
X028372Y023414D01*
X028404Y023378D01*
X028434Y023340D01*
X028460Y023299D01*
X028482Y023256D01*
X028502Y023212D01*
X028517Y023167D01*
X028529Y023120D01*
X028537Y023072D01*
X028541Y023024D01*
X028541Y022976D01*
X028537Y022928D01*
X028529Y022880D01*
X028517Y022833D01*
X028502Y022788D01*
X028482Y022744D01*
X028460Y022701D01*
X028434Y022660D01*
X028404Y022622D01*
X028372Y022586D01*
X028337Y022553D01*
X028299Y022523D01*
X028259Y022496D01*
X028217Y022473D01*
X028173Y022453D01*
X028128Y022436D01*
X028082Y022424D01*
X028034Y022415D01*
X027986Y022410D01*
X027938Y022409D01*
X027890Y022412D01*
X027842Y022419D01*
X027795Y022430D01*
X027749Y022444D01*
X027704Y022462D01*
X027661Y022484D01*
X027620Y022509D01*
X027582Y022538D01*
X027545Y022570D01*
X027511Y022604D01*
X027481Y022641D01*
X027453Y022680D01*
X027428Y022722D01*
X027408Y022766D01*
X027390Y022811D01*
X027377Y022857D01*
X027367Y022904D01*
X027361Y022952D01*
X027359Y023000D01*
X023859Y023000D02*
X023861Y023048D01*
X023867Y023096D01*
X023877Y023143D01*
X023890Y023189D01*
X023908Y023234D01*
X023928Y023278D01*
X023953Y023320D01*
X023981Y023359D01*
X024011Y023396D01*
X024045Y023430D01*
X024082Y023462D01*
X024120Y023491D01*
X024161Y023516D01*
X024204Y023538D01*
X024249Y023556D01*
X024295Y023570D01*
X024342Y023581D01*
X024390Y023588D01*
X024438Y023591D01*
X024486Y023590D01*
X024534Y023585D01*
X024582Y023576D01*
X024628Y023564D01*
X024673Y023547D01*
X024717Y023527D01*
X024759Y023504D01*
X024799Y023477D01*
X024837Y023447D01*
X024872Y023414D01*
X024904Y023378D01*
X024934Y023340D01*
X024960Y023299D01*
X024982Y023256D01*
X025002Y023212D01*
X025017Y023167D01*
X025029Y023120D01*
X025037Y023072D01*
X025041Y023024D01*
X025041Y022976D01*
X025037Y022928D01*
X025029Y022880D01*
X025017Y022833D01*
X025002Y022788D01*
X024982Y022744D01*
X024960Y022701D01*
X024934Y022660D01*
X024904Y022622D01*
X024872Y022586D01*
X024837Y022553D01*
X024799Y022523D01*
X024759Y022496D01*
X024717Y022473D01*
X024673Y022453D01*
X024628Y022436D01*
X024582Y022424D01*
X024534Y022415D01*
X024486Y022410D01*
X024438Y022409D01*
X024390Y022412D01*
X024342Y022419D01*
X024295Y022430D01*
X024249Y022444D01*
X024204Y022462D01*
X024161Y022484D01*
X024120Y022509D01*
X024082Y022538D01*
X024045Y022570D01*
X024011Y022604D01*
X023981Y022641D01*
X023953Y022680D01*
X023928Y022722D01*
X023908Y022766D01*
X023890Y022811D01*
X023877Y022857D01*
X023867Y022904D01*
X023861Y022952D01*
X023859Y023000D01*
X015659Y015400D02*
X015661Y015448D01*
X015667Y015496D01*
X015677Y015543D01*
X015690Y015589D01*
X015708Y015634D01*
X015728Y015678D01*
X015753Y015720D01*
X015781Y015759D01*
X015811Y015796D01*
X015845Y015830D01*
X015882Y015862D01*
X015920Y015891D01*
X015961Y015916D01*
X016004Y015938D01*
X016049Y015956D01*
X016095Y015970D01*
X016142Y015981D01*
X016190Y015988D01*
X016238Y015991D01*
X016286Y015990D01*
X016334Y015985D01*
X016382Y015976D01*
X016428Y015964D01*
X016473Y015947D01*
X016517Y015927D01*
X016559Y015904D01*
X016599Y015877D01*
X016637Y015847D01*
X016672Y015814D01*
X016704Y015778D01*
X016734Y015740D01*
X016760Y015699D01*
X016782Y015656D01*
X016802Y015612D01*
X016817Y015567D01*
X016829Y015520D01*
X016837Y015472D01*
X016841Y015424D01*
X016841Y015376D01*
X016837Y015328D01*
X016829Y015280D01*
X016817Y015233D01*
X016802Y015188D01*
X016782Y015144D01*
X016760Y015101D01*
X016734Y015060D01*
X016704Y015022D01*
X016672Y014986D01*
X016637Y014953D01*
X016599Y014923D01*
X016559Y014896D01*
X016517Y014873D01*
X016473Y014853D01*
X016428Y014836D01*
X016382Y014824D01*
X016334Y014815D01*
X016286Y014810D01*
X016238Y014809D01*
X016190Y014812D01*
X016142Y014819D01*
X016095Y014830D01*
X016049Y014844D01*
X016004Y014862D01*
X015961Y014884D01*
X015920Y014909D01*
X015882Y014938D01*
X015845Y014970D01*
X015811Y015004D01*
X015781Y015041D01*
X015753Y015080D01*
X015728Y015122D01*
X015708Y015166D01*
X015690Y015211D01*
X015677Y015257D01*
X015667Y015304D01*
X015661Y015352D01*
X015659Y015400D01*
X013011Y015150D02*
X013013Y015202D01*
X013019Y015254D01*
X013029Y015305D01*
X013042Y015355D01*
X013060Y015405D01*
X013081Y015452D01*
X013105Y015498D01*
X013134Y015542D01*
X013165Y015584D01*
X013199Y015623D01*
X013236Y015660D01*
X013276Y015693D01*
X013319Y015724D01*
X013363Y015751D01*
X013409Y015775D01*
X013458Y015795D01*
X013507Y015811D01*
X013558Y015824D01*
X013609Y015833D01*
X013661Y015838D01*
X013713Y015839D01*
X013765Y015836D01*
X013817Y015829D01*
X013868Y015818D01*
X013918Y015804D01*
X013967Y015785D01*
X014014Y015763D01*
X014059Y015738D01*
X014103Y015709D01*
X014144Y015677D01*
X014183Y015642D01*
X014218Y015604D01*
X014251Y015563D01*
X014281Y015521D01*
X014307Y015476D01*
X014330Y015429D01*
X014349Y015380D01*
X014365Y015330D01*
X014377Y015280D01*
X014385Y015228D01*
X014389Y015176D01*
X014389Y015124D01*
X014385Y015072D01*
X014377Y015020D01*
X014365Y014970D01*
X014349Y014920D01*
X014330Y014871D01*
X014307Y014824D01*
X014281Y014779D01*
X014251Y014737D01*
X014218Y014696D01*
X014183Y014658D01*
X014144Y014623D01*
X014103Y014591D01*
X014059Y014562D01*
X014014Y014537D01*
X013967Y014515D01*
X013918Y014496D01*
X013868Y014482D01*
X013817Y014471D01*
X013765Y014464D01*
X013713Y014461D01*
X013661Y014462D01*
X013609Y014467D01*
X013558Y014476D01*
X013507Y014489D01*
X013458Y014505D01*
X013409Y014525D01*
X013363Y014549D01*
X013319Y014576D01*
X013276Y014607D01*
X013236Y014640D01*
X013199Y014677D01*
X013165Y014716D01*
X013134Y014758D01*
X013105Y014802D01*
X013081Y014848D01*
X013060Y014895D01*
X013042Y014945D01*
X013029Y014995D01*
X013019Y015046D01*
X013013Y015098D01*
X013011Y015150D01*
X008559Y015400D02*
X008561Y015448D01*
X008567Y015496D01*
X008577Y015543D01*
X008590Y015589D01*
X008608Y015634D01*
X008628Y015678D01*
X008653Y015720D01*
X008681Y015759D01*
X008711Y015796D01*
X008745Y015830D01*
X008782Y015862D01*
X008820Y015891D01*
X008861Y015916D01*
X008904Y015938D01*
X008949Y015956D01*
X008995Y015970D01*
X009042Y015981D01*
X009090Y015988D01*
X009138Y015991D01*
X009186Y015990D01*
X009234Y015985D01*
X009282Y015976D01*
X009328Y015964D01*
X009373Y015947D01*
X009417Y015927D01*
X009459Y015904D01*
X009499Y015877D01*
X009537Y015847D01*
X009572Y015814D01*
X009604Y015778D01*
X009634Y015740D01*
X009660Y015699D01*
X009682Y015656D01*
X009702Y015612D01*
X009717Y015567D01*
X009729Y015520D01*
X009737Y015472D01*
X009741Y015424D01*
X009741Y015376D01*
X009737Y015328D01*
X009729Y015280D01*
X009717Y015233D01*
X009702Y015188D01*
X009682Y015144D01*
X009660Y015101D01*
X009634Y015060D01*
X009604Y015022D01*
X009572Y014986D01*
X009537Y014953D01*
X009499Y014923D01*
X009459Y014896D01*
X009417Y014873D01*
X009373Y014853D01*
X009328Y014836D01*
X009282Y014824D01*
X009234Y014815D01*
X009186Y014810D01*
X009138Y014809D01*
X009090Y014812D01*
X009042Y014819D01*
X008995Y014830D01*
X008949Y014844D01*
X008904Y014862D01*
X008861Y014884D01*
X008820Y014909D01*
X008782Y014938D01*
X008745Y014970D01*
X008711Y015004D01*
X008681Y015041D01*
X008653Y015080D01*
X008628Y015122D01*
X008608Y015166D01*
X008590Y015211D01*
X008577Y015257D01*
X008567Y015304D01*
X008561Y015352D01*
X008559Y015400D01*
X008070Y020500D02*
X008072Y020550D01*
X008078Y020600D01*
X008088Y020649D01*
X008102Y020697D01*
X008119Y020744D01*
X008140Y020789D01*
X008165Y020833D01*
X008193Y020874D01*
X008225Y020913D01*
X008259Y020950D01*
X008296Y020984D01*
X008336Y021014D01*
X008378Y021041D01*
X008422Y021065D01*
X008468Y021086D01*
X008515Y021102D01*
X008563Y021115D01*
X008613Y021124D01*
X008662Y021129D01*
X008713Y021130D01*
X008763Y021127D01*
X008812Y021120D01*
X008861Y021109D01*
X008909Y021094D01*
X008955Y021076D01*
X009000Y021054D01*
X009043Y021028D01*
X009084Y020999D01*
X009123Y020967D01*
X009159Y020932D01*
X009191Y020894D01*
X009221Y020854D01*
X009248Y020811D01*
X009271Y020767D01*
X009290Y020721D01*
X009306Y020673D01*
X009318Y020624D01*
X009326Y020575D01*
X009330Y020525D01*
X009330Y020475D01*
X009326Y020425D01*
X009318Y020376D01*
X009306Y020327D01*
X009290Y020279D01*
X009271Y020233D01*
X009248Y020189D01*
X009221Y020146D01*
X009191Y020106D01*
X009159Y020068D01*
X009123Y020033D01*
X009084Y020001D01*
X009043Y019972D01*
X009000Y019946D01*
X008955Y019924D01*
X008909Y019906D01*
X008861Y019891D01*
X008812Y019880D01*
X008763Y019873D01*
X008713Y019870D01*
X008662Y019871D01*
X008613Y019876D01*
X008563Y019885D01*
X008515Y019898D01*
X008468Y019914D01*
X008422Y019935D01*
X008378Y019959D01*
X008336Y019986D01*
X008296Y020016D01*
X008259Y020050D01*
X008225Y020087D01*
X008193Y020126D01*
X008165Y020167D01*
X008140Y020211D01*
X008119Y020256D01*
X008102Y020303D01*
X008088Y020351D01*
X008078Y020400D01*
X008072Y020450D01*
X008070Y020500D01*
D11*
X011115Y019862D02*
X011115Y019615D01*
X011115Y019800D02*
X011361Y019800D01*
X011361Y019862D02*
X011361Y019615D01*
X011483Y019615D02*
X011483Y019985D01*
X011668Y019985D01*
X011730Y019924D01*
X011730Y019800D01*
X011668Y019738D01*
X011483Y019738D01*
X011606Y019738D02*
X011730Y019615D01*
X011851Y019677D02*
X011851Y019800D01*
X011913Y019862D01*
X012036Y019862D01*
X012098Y019800D01*
X012098Y019738D01*
X011851Y019738D01*
X011851Y019677D02*
X011913Y019615D01*
X012036Y019615D01*
X012281Y019615D02*
X012281Y019924D01*
X012343Y019985D01*
X012343Y019800D02*
X012219Y019800D01*
X012610Y019800D02*
X012610Y019677D01*
X012672Y019615D01*
X012857Y019615D01*
X012857Y019553D02*
X012857Y019862D01*
X012672Y019862D01*
X012610Y019800D01*
X012733Y019492D02*
X012795Y019492D01*
X012857Y019553D01*
X012978Y019615D02*
X012978Y019862D01*
X013164Y019862D01*
X013225Y019800D01*
X013225Y019615D01*
X013347Y019677D02*
X013347Y019800D01*
X013408Y019862D01*
X013594Y019862D01*
X013594Y019985D02*
X013594Y019615D01*
X013408Y019615D01*
X013347Y019677D01*
X013828Y019615D02*
X014075Y019615D01*
X013952Y019615D02*
X013952Y019985D01*
X013828Y019862D01*
X014197Y019924D02*
X014258Y019985D01*
X014382Y019985D01*
X014444Y019924D01*
X014444Y019862D01*
X014382Y019800D01*
X014444Y019738D01*
X014444Y019677D01*
X014382Y019615D01*
X014258Y019615D01*
X014197Y019677D01*
X014320Y019800D02*
X014382Y019800D01*
X014828Y019862D02*
X014952Y019985D01*
X014952Y019615D01*
X015075Y019615D02*
X014828Y019615D01*
X015197Y019615D02*
X015444Y019862D01*
X015444Y019924D01*
X015382Y019985D01*
X015258Y019985D01*
X015197Y019924D01*
X015197Y019615D02*
X015444Y019615D01*
X015828Y019615D02*
X016075Y019615D01*
X016197Y019615D02*
X016444Y019615D01*
X016320Y019615D02*
X016320Y019985D01*
X016197Y019862D01*
X015952Y019985D02*
X015952Y019615D01*
X015828Y019862D02*
X015952Y019985D01*
X016828Y019862D02*
X016952Y019985D01*
X016952Y019615D01*
X017075Y019615D02*
X016828Y019615D01*
X017197Y019677D02*
X017444Y019924D01*
X017444Y019677D01*
X017382Y019615D01*
X017258Y019615D01*
X017197Y019677D01*
X017197Y019924D01*
X017258Y019985D01*
X017382Y019985D01*
X017444Y019924D01*
X017997Y019924D02*
X017997Y019862D01*
X018058Y019800D01*
X018244Y019800D01*
X018244Y019677D02*
X018244Y019924D01*
X018182Y019985D01*
X018058Y019985D01*
X017997Y019924D01*
X017997Y019677D02*
X018058Y019615D01*
X018182Y019615D01*
X018244Y019677D01*
X018997Y019677D02*
X018997Y019738D01*
X019058Y019800D01*
X019182Y019800D01*
X019244Y019738D01*
X019244Y019677D01*
X019182Y019615D01*
X019058Y019615D01*
X018997Y019677D01*
X019058Y019800D02*
X018997Y019862D01*
X018997Y019924D01*
X019058Y019985D01*
X019182Y019985D01*
X019244Y019924D01*
X019244Y019862D01*
X019182Y019800D01*
X020597Y019677D02*
X020597Y019615D01*
X020597Y019677D02*
X020844Y019924D01*
X020844Y019985D01*
X020597Y019985D01*
X021597Y019800D02*
X021782Y019800D01*
X021844Y019738D01*
X021844Y019677D01*
X021782Y019615D01*
X021658Y019615D01*
X021597Y019677D01*
X021597Y019800D01*
X021720Y019924D01*
X021844Y019985D01*
X022597Y019985D02*
X022597Y019800D01*
X022720Y019862D01*
X022782Y019862D01*
X022844Y019800D01*
X022844Y019677D01*
X022782Y019615D01*
X022658Y019615D01*
X022597Y019677D01*
X022597Y019985D02*
X022844Y019985D01*
X023597Y019800D02*
X023844Y019800D01*
X023782Y019615D02*
X023782Y019985D01*
X023597Y019800D01*
X024597Y019677D02*
X024658Y019615D01*
X024782Y019615D01*
X024844Y019677D01*
X024844Y019738D01*
X024782Y019800D01*
X024720Y019800D01*
X024782Y019800D02*
X024844Y019862D01*
X024844Y019924D01*
X024782Y019985D01*
X024658Y019985D01*
X024597Y019924D01*
X025597Y019924D02*
X025658Y019985D01*
X025782Y019985D01*
X025844Y019924D01*
X025844Y019862D01*
X025597Y019615D01*
X025844Y019615D01*
X026597Y019615D02*
X026844Y019615D01*
X026720Y019615D02*
X026720Y019985D01*
X026597Y019862D01*
X027597Y019924D02*
X027597Y019677D01*
X027844Y019924D01*
X027844Y019677D01*
X027782Y019615D01*
X027658Y019615D01*
X027597Y019677D01*
X027597Y019924D02*
X027658Y019985D01*
X027782Y019985D01*
X027844Y019924D01*
X026081Y021077D02*
X026081Y021324D01*
X026019Y021385D01*
X025896Y021385D01*
X025834Y021324D01*
X025834Y021077D01*
X025896Y021015D01*
X026019Y021015D01*
X026081Y021077D01*
X025713Y021385D02*
X025466Y021015D01*
X025344Y021015D02*
X025220Y021015D01*
X025282Y021015D02*
X025282Y021385D01*
X025220Y021385D02*
X025344Y021385D01*
X024668Y021385D02*
X024668Y021015D01*
X024607Y021015D02*
X024730Y021015D01*
X024485Y021015D02*
X024300Y021015D01*
X024238Y021077D01*
X024300Y021138D01*
X024485Y021138D01*
X024485Y021200D02*
X024485Y021015D01*
X024485Y021200D02*
X024423Y021262D01*
X024300Y021262D01*
X024116Y021262D02*
X023993Y021262D01*
X024054Y021324D02*
X024054Y021077D01*
X024116Y021015D01*
X023871Y021015D02*
X023747Y021015D01*
X023809Y021015D02*
X023809Y021262D01*
X023747Y021262D01*
X023626Y021262D02*
X023441Y021262D01*
X023379Y021200D01*
X023379Y021077D01*
X023441Y021015D01*
X023626Y021015D01*
X023626Y020953D02*
X023626Y021262D01*
X023809Y021385D02*
X023809Y021447D01*
X023626Y020953D02*
X023564Y020892D01*
X023502Y020892D01*
X023257Y021015D02*
X023133Y021015D01*
X023195Y021015D02*
X023195Y021262D01*
X023133Y021262D01*
X023012Y021324D02*
X022950Y021385D01*
X022765Y021385D01*
X022765Y021015D01*
X022950Y021015D01*
X023012Y021077D01*
X023012Y021324D01*
X023195Y021385D02*
X023195Y021447D01*
X024607Y021385D02*
X024668Y021385D01*
X026015Y022015D02*
X026015Y022200D01*
X026076Y022262D01*
X026138Y022262D01*
X026200Y022200D01*
X026200Y022015D01*
X026385Y022015D02*
X026015Y022015D01*
X026200Y022200D02*
X026262Y022262D01*
X026323Y022262D01*
X026385Y022200D01*
X026385Y022015D01*
X026385Y022383D02*
X026015Y022383D01*
X026200Y022383D02*
X026200Y022630D01*
X026138Y022752D02*
X026015Y022875D01*
X026385Y022875D01*
X026385Y022752D02*
X026385Y022999D01*
X026385Y023120D02*
X026323Y023120D01*
X026076Y023367D01*
X026015Y023367D01*
X026015Y023120D01*
X026015Y023488D02*
X026200Y023488D01*
X026138Y023612D01*
X026138Y023673D01*
X026200Y023735D01*
X026323Y023735D01*
X026385Y023673D01*
X026385Y023550D01*
X026323Y023488D01*
X026015Y023488D02*
X026015Y023735D01*
X026076Y023857D02*
X026015Y023918D01*
X026015Y024042D01*
X026076Y024103D01*
X026323Y023857D01*
X026385Y023918D01*
X026385Y024042D01*
X026323Y024103D01*
X026076Y024103D01*
X026076Y023857D02*
X026323Y023857D01*
X026385Y022630D02*
X026015Y022630D01*
X018481Y021324D02*
X018481Y021077D01*
X018419Y021015D01*
X018296Y021015D01*
X018234Y021077D01*
X018234Y021324D01*
X018296Y021385D01*
X018419Y021385D01*
X018481Y021324D01*
X018113Y021385D02*
X017866Y021015D01*
X017744Y021015D02*
X017620Y021015D01*
X017682Y021015D02*
X017682Y021385D01*
X017620Y021385D02*
X017744Y021385D01*
X017068Y021385D02*
X017068Y021015D01*
X017007Y021015D02*
X017130Y021015D01*
X016885Y021015D02*
X016885Y021200D01*
X016823Y021262D01*
X016700Y021262D01*
X016700Y021138D02*
X016885Y021138D01*
X016885Y021015D02*
X016700Y021015D01*
X016638Y021077D01*
X016700Y021138D01*
X016516Y021015D02*
X016454Y021077D01*
X016454Y021324D01*
X016393Y021262D02*
X016516Y021262D01*
X016209Y021262D02*
X016209Y021015D01*
X016147Y021015D02*
X016271Y021015D01*
X016026Y021015D02*
X015841Y021015D01*
X015779Y021077D01*
X015779Y021200D01*
X015841Y021262D01*
X016026Y021262D01*
X016026Y020953D01*
X015964Y020892D01*
X015902Y020892D01*
X015657Y021015D02*
X015533Y021015D01*
X015595Y021015D02*
X015595Y021262D01*
X015533Y021262D01*
X015412Y021324D02*
X015350Y021385D01*
X015165Y021385D01*
X015165Y021015D01*
X015350Y021015D01*
X015412Y021077D01*
X015412Y021324D01*
X015595Y021385D02*
X015595Y021447D01*
X016147Y021262D02*
X016209Y021262D01*
X016209Y021385D02*
X016209Y021447D01*
X017007Y021385D02*
X017068Y021385D01*
X011361Y019862D02*
X011238Y019985D01*
X011115Y019862D01*
X015011Y002385D02*
X015196Y002385D01*
X015258Y002324D01*
X015258Y002200D01*
X015196Y002138D01*
X015011Y002138D01*
X015011Y002015D02*
X015011Y002385D01*
X015134Y002138D02*
X015258Y002015D01*
X015379Y002077D02*
X015441Y002015D01*
X015564Y002015D01*
X015626Y002077D01*
X015626Y002138D01*
X015564Y002200D01*
X015441Y002200D01*
X015379Y002262D01*
X015379Y002324D01*
X015441Y002385D01*
X015564Y002385D01*
X015626Y002324D01*
X015748Y002385D02*
X015995Y002385D01*
X015871Y002385D02*
X015871Y002015D01*
X016397Y002077D02*
X016459Y002015D01*
X016582Y002015D01*
X016644Y002077D01*
X016644Y002138D01*
X016582Y002200D01*
X016520Y002200D01*
X016582Y002200D02*
X016644Y002262D01*
X016644Y002324D01*
X016582Y002385D01*
X016459Y002385D01*
X016397Y002324D01*
X016765Y002262D02*
X016889Y002015D01*
X017012Y002262D01*
X017497Y002200D02*
X017620Y002262D01*
X017682Y002262D01*
X017744Y002200D01*
X017744Y002077D01*
X017682Y002015D01*
X017559Y002015D01*
X017497Y002077D01*
X017497Y002200D02*
X017497Y002385D01*
X017744Y002385D01*
X017865Y002262D02*
X017989Y002015D01*
X018112Y002262D01*
X018769Y002324D02*
X018769Y002077D01*
X018831Y002015D01*
X018954Y002015D01*
X019016Y002077D01*
X019016Y002200D01*
X018892Y002200D01*
X018769Y002324D02*
X018831Y002385D01*
X018954Y002385D01*
X019016Y002324D01*
X019137Y002262D02*
X019137Y002015D01*
X019137Y002262D02*
X019322Y002262D01*
X019384Y002200D01*
X019384Y002015D01*
X019506Y002077D02*
X019506Y002200D01*
X019567Y002262D01*
X019752Y002262D01*
X019752Y002385D02*
X019752Y002015D01*
X019567Y002015D01*
X019506Y002077D01*
X020347Y002138D02*
X020470Y002015D01*
X020594Y002138D01*
X020594Y002385D01*
X020715Y002262D02*
X020777Y002262D01*
X020777Y002015D01*
X020715Y002015D02*
X020839Y002015D01*
X020961Y002015D02*
X020961Y002262D01*
X021146Y002262D01*
X021208Y002200D01*
X021208Y002015D01*
X020777Y002385D02*
X020777Y002447D01*
X020347Y002385D02*
X020347Y002138D01*
X022565Y002077D02*
X022812Y002324D01*
X022812Y002077D01*
X022750Y002015D01*
X022627Y002015D01*
X022565Y002077D01*
X022565Y002324D01*
X022627Y002385D01*
X022750Y002385D01*
X022812Y002324D01*
X023565Y002262D02*
X023688Y002385D01*
X023688Y002015D01*
X023565Y002015D02*
X023812Y002015D01*
X024565Y002015D02*
X024812Y002262D01*
X024812Y002324D01*
X024750Y002385D01*
X024627Y002385D01*
X024565Y002324D01*
X024565Y002015D02*
X024812Y002015D01*
X025565Y002077D02*
X025627Y002015D01*
X025750Y002015D01*
X025812Y002077D01*
X025812Y002138D01*
X025750Y002200D01*
X025688Y002200D01*
X025750Y002200D02*
X025812Y002262D01*
X025812Y002324D01*
X025750Y002385D01*
X025627Y002385D01*
X025565Y002324D01*
X026565Y002200D02*
X026812Y002200D01*
X026750Y002015D02*
X026750Y002385D01*
X026565Y002200D01*
X027565Y002200D02*
X027688Y002262D01*
X027750Y002262D01*
X027812Y002200D01*
X027812Y002077D01*
X027750Y002015D01*
X027627Y002015D01*
X027565Y002077D01*
X027565Y002200D02*
X027565Y002385D01*
X027812Y002385D01*
X026598Y001067D02*
X026474Y001067D01*
X026536Y001067D02*
X026536Y000697D01*
X026474Y000697D02*
X026598Y000697D01*
X026720Y000697D02*
X026720Y000944D01*
X026905Y000944D01*
X026967Y000882D01*
X026967Y000697D01*
X025985Y000697D02*
X025799Y000697D01*
X025738Y000759D01*
X025738Y000882D01*
X025799Y000944D01*
X025985Y000944D01*
X025985Y000635D01*
X025923Y000574D01*
X025861Y000574D01*
X025616Y000759D02*
X025616Y000882D01*
X025555Y000944D01*
X025431Y000944D01*
X025369Y000882D01*
X025369Y000759D01*
X025431Y000697D01*
X025555Y000697D01*
X025616Y000759D01*
X025247Y000697D02*
X025124Y000697D01*
X025186Y000697D02*
X025186Y001067D01*
X025124Y001067D01*
X024941Y000944D02*
X025002Y000882D01*
X025002Y000697D01*
X024817Y000697D01*
X024756Y000759D01*
X024817Y000820D01*
X025002Y000820D01*
X024941Y000944D02*
X024817Y000944D01*
X024634Y000882D02*
X024634Y000697D01*
X024634Y000882D02*
X024572Y000944D01*
X024387Y000944D01*
X024387Y000697D01*
X024266Y000697D02*
X024266Y000944D01*
X024142Y001067D01*
X024019Y000944D01*
X024019Y000697D01*
X024019Y000882D02*
X024266Y000882D01*
D12*
X024450Y002100D02*
X023950Y002100D01*
X023950Y002750D01*
X023450Y002750D01*
X023450Y002100D01*
X022950Y002100D01*
X022950Y002750D01*
X022450Y002750D01*
X022450Y002100D01*
X021200Y002100D01*
X021200Y004250D01*
X026200Y004250D01*
X026200Y002100D01*
X024950Y002100D01*
X024950Y002750D01*
X024450Y002750D01*
X024450Y002100D01*
X024950Y002100D01*
X023950Y002100D02*
X023450Y002100D01*
X022950Y002100D02*
X022450Y002100D01*
X021200Y004250D02*
X021200Y004500D01*
X026200Y004500D01*
X026200Y004250D01*
X027650Y006525D02*
X027725Y006525D01*
X027800Y006600D01*
X027800Y006750D01*
X027875Y006825D01*
X027950Y006825D01*
X028025Y006750D01*
X028025Y006600D01*
X027950Y006525D01*
X027650Y006525D02*
X027575Y006600D01*
X027575Y006750D01*
X027650Y006825D01*
X027575Y006985D02*
X027875Y006985D01*
X028025Y007136D01*
X027875Y007286D01*
X027575Y007286D01*
X027725Y007446D02*
X027575Y007596D01*
X028025Y007596D01*
X028025Y007446D02*
X028025Y007746D01*
X029375Y006925D02*
X029825Y006925D01*
X029825Y006775D02*
X029825Y007075D01*
X029525Y006775D02*
X029375Y006925D01*
X027950Y011775D02*
X028025Y011850D01*
X028025Y012000D01*
X027950Y012075D01*
X027875Y012075D01*
X027800Y012000D01*
X027800Y011775D01*
X027950Y011775D01*
X027800Y011775D02*
X027650Y011925D01*
X027575Y012075D01*
X029000Y016700D02*
X023400Y016700D01*
X023400Y024300D01*
X029000Y024300D01*
X029000Y016700D01*
X028450Y017000D02*
X028700Y017250D01*
X028700Y017750D01*
X028450Y018000D01*
X027950Y018000D01*
X027700Y017750D01*
X027450Y018000D01*
X026950Y018000D01*
X026700Y017750D01*
X026450Y018000D01*
X025950Y018000D01*
X025700Y017750D01*
X025450Y018000D01*
X024950Y018000D01*
X024700Y017750D01*
X024450Y018000D01*
X023950Y018000D01*
X023700Y017750D01*
X023700Y017250D01*
X023950Y017000D01*
X024450Y017000D01*
X024700Y017250D01*
X024950Y017000D01*
X025450Y017000D01*
X025700Y017250D01*
X025950Y017000D01*
X026450Y017000D01*
X026700Y017250D01*
X026950Y017000D01*
X027450Y017000D01*
X027700Y017250D01*
X027950Y017000D01*
X028450Y017000D01*
X026700Y021000D02*
X025700Y021000D01*
X025700Y021600D01*
X026700Y021600D01*
X026700Y021000D01*
X017450Y016600D02*
X007950Y016600D01*
X007950Y002400D01*
X017450Y002400D01*
X017450Y016600D01*
X011371Y015200D02*
X011373Y015218D01*
X011379Y015234D01*
X011388Y015249D01*
X011401Y015262D01*
X011416Y015271D01*
X011432Y015277D01*
X011450Y015279D01*
X011468Y015277D01*
X011484Y015271D01*
X011499Y015262D01*
X011512Y015249D01*
X011521Y015234D01*
X011527Y015218D01*
X011529Y015200D01*
X011527Y015182D01*
X011521Y015166D01*
X011512Y015151D01*
X011499Y015138D01*
X011484Y015129D01*
X011468Y015123D01*
X011450Y015121D01*
X011432Y015123D01*
X011416Y015129D01*
X011401Y015138D01*
X011388Y015151D01*
X011379Y015166D01*
X011373Y015182D01*
X011371Y015200D01*
X011056Y015200D02*
X011058Y015239D01*
X011064Y015278D01*
X011074Y015316D01*
X011087Y015353D01*
X011104Y015388D01*
X011124Y015422D01*
X011148Y015453D01*
X011175Y015482D01*
X011204Y015508D01*
X011236Y015531D01*
X011270Y015551D01*
X011306Y015567D01*
X011343Y015579D01*
X011382Y015588D01*
X011421Y015593D01*
X011460Y015594D01*
X011499Y015591D01*
X011538Y015584D01*
X011575Y015573D01*
X011612Y015559D01*
X011647Y015541D01*
X011680Y015520D01*
X011711Y015495D01*
X011739Y015468D01*
X011764Y015438D01*
X011786Y015405D01*
X011805Y015371D01*
X011820Y015335D01*
X011832Y015297D01*
X011840Y015259D01*
X011844Y015220D01*
X011844Y015180D01*
X011840Y015141D01*
X011832Y015103D01*
X011820Y015065D01*
X011805Y015029D01*
X011786Y014995D01*
X011764Y014962D01*
X011739Y014932D01*
X011711Y014905D01*
X011680Y014880D01*
X011647Y014859D01*
X011612Y014841D01*
X011575Y014827D01*
X011538Y014816D01*
X011499Y014809D01*
X011460Y014806D01*
X011421Y014807D01*
X011382Y014812D01*
X011343Y014821D01*
X011306Y014833D01*
X011270Y014849D01*
X011236Y014869D01*
X011204Y014892D01*
X011175Y014918D01*
X011148Y014947D01*
X011124Y014978D01*
X011104Y015012D01*
X011087Y015047D01*
X011074Y015084D01*
X011064Y015122D01*
X011058Y015161D01*
X011056Y015200D01*
X010950Y003750D02*
X010450Y003750D01*
X010200Y003500D01*
X010200Y003000D01*
X010450Y002750D01*
X010950Y002750D01*
X011200Y003000D01*
X011450Y002750D01*
X011950Y002750D01*
X012200Y003000D01*
X012450Y002750D01*
X012950Y002750D01*
X013200Y003000D01*
X013450Y002750D01*
X013950Y002750D01*
X014200Y003000D01*
X014450Y002750D01*
X014950Y002750D01*
X015200Y003000D01*
X015200Y003500D01*
X014950Y003750D01*
X014450Y003750D01*
X014200Y003500D01*
X013950Y003750D01*
X013450Y003750D01*
X013200Y003500D01*
X012950Y003750D01*
X012450Y003750D01*
X012200Y003500D01*
X011950Y003750D01*
X011450Y003750D01*
X011200Y003500D01*
X010950Y003750D01*
D13*
X010777Y004020D02*
X010930Y004173D01*
X010777Y004327D01*
X010470Y004327D01*
X010546Y004480D02*
X010853Y004480D01*
X010930Y004557D01*
X010930Y004711D01*
X010853Y004787D01*
X010853Y004941D02*
X010930Y005018D01*
X010930Y005171D01*
X010853Y005248D01*
X010546Y005248D02*
X010470Y005171D01*
X010470Y005018D01*
X010546Y004941D01*
X010853Y004941D01*
X010546Y004787D02*
X010470Y004711D01*
X010470Y004557D01*
X010546Y004480D01*
X010470Y004020D02*
X010777Y004020D01*
X011470Y004097D02*
X011546Y004020D01*
X011853Y004020D01*
X011930Y004097D01*
X011930Y004250D01*
X011853Y004327D01*
X011700Y004327D01*
X011700Y004173D01*
X011546Y004327D02*
X011470Y004250D01*
X011470Y004097D01*
X011470Y004480D02*
X011930Y004787D01*
X011470Y004787D01*
X011470Y004941D02*
X011470Y005171D01*
X011546Y005248D01*
X011853Y005248D01*
X011930Y005171D01*
X011930Y004941D01*
X011470Y004941D01*
X011470Y004480D02*
X011930Y004480D01*
X012470Y004480D02*
X012930Y004787D01*
X012930Y004941D02*
X012930Y005171D01*
X012853Y005248D01*
X012546Y005248D01*
X012470Y005171D01*
X012470Y004941D01*
X012930Y004941D01*
X012930Y004480D02*
X012470Y004787D01*
X012470Y004327D02*
X012470Y004020D01*
X012470Y004173D02*
X012930Y004173D01*
X013470Y004250D02*
X013470Y004020D01*
X013930Y004020D01*
X013777Y004020D02*
X013777Y004250D01*
X013700Y004327D01*
X013546Y004327D01*
X013470Y004250D01*
X013470Y004480D02*
X013930Y004787D01*
X013930Y004941D02*
X013930Y005171D01*
X013853Y005248D01*
X013546Y005248D01*
X013470Y005171D01*
X013470Y004941D01*
X013930Y004941D01*
X013930Y004480D02*
X013470Y004787D01*
X013930Y004327D02*
X013777Y004173D01*
X014470Y004250D02*
X014470Y004020D01*
X014930Y004020D01*
X014777Y004020D02*
X014777Y004250D01*
X014700Y004327D01*
X014546Y004327D01*
X014470Y004250D01*
X014470Y004480D02*
X014470Y004711D01*
X014546Y004787D01*
X014700Y004787D01*
X014777Y004711D01*
X014777Y004480D01*
X014930Y004480D02*
X014470Y004480D01*
X014546Y004941D02*
X014623Y004941D01*
X014700Y005018D01*
X014700Y005171D01*
X014777Y005248D01*
X014853Y005248D01*
X014930Y005171D01*
X014930Y005018D01*
X014853Y004941D01*
X014546Y004941D02*
X014470Y005018D01*
X014470Y005171D01*
X014546Y005248D01*
X007430Y008906D02*
X007430Y009060D01*
X007353Y009136D01*
X006970Y009136D01*
X007046Y009290D02*
X006970Y009367D01*
X006970Y009520D01*
X007046Y009597D01*
X006970Y009750D02*
X007200Y009750D01*
X007123Y009904D01*
X007123Y009980D01*
X007200Y010057D01*
X007353Y010057D01*
X007430Y009980D01*
X007430Y009827D01*
X007353Y009750D01*
X007353Y009597D02*
X007277Y009597D01*
X007200Y009520D01*
X007200Y009367D01*
X007123Y009290D01*
X007046Y009290D01*
X006893Y009443D02*
X007507Y009443D01*
X007430Y009367D02*
X007430Y009520D01*
X007353Y009597D01*
X007430Y009367D02*
X007353Y009290D01*
X007430Y008906D02*
X007353Y008829D01*
X006970Y008829D01*
X006970Y009750D02*
X006970Y010057D01*
X011220Y013292D02*
X011373Y013446D01*
X011680Y013446D01*
X011680Y013599D02*
X011220Y013599D01*
X011680Y013906D01*
X011220Y013906D01*
X011220Y014060D02*
X011220Y014367D01*
X011220Y014213D02*
X011680Y014213D01*
X011450Y013446D02*
X011450Y013139D01*
X011373Y013139D02*
X011220Y013292D01*
X011373Y013139D02*
X011680Y013139D01*
X012620Y019720D02*
X012927Y020180D01*
X013080Y020104D02*
X013157Y020180D01*
X013311Y020180D01*
X013387Y020104D01*
X013387Y020027D01*
X013080Y019720D01*
X013387Y019720D01*
X012927Y019720D02*
X012620Y020180D01*
X022393Y020443D02*
X023007Y020443D01*
X022930Y020367D02*
X022930Y020520D01*
X022853Y020597D01*
X022777Y020597D01*
X022700Y020520D01*
X022700Y020367D01*
X022623Y020290D01*
X022546Y020290D01*
X022470Y020367D01*
X022470Y020520D01*
X022546Y020597D01*
X022700Y020750D02*
X022700Y021057D01*
X022930Y020980D02*
X022470Y020980D01*
X022700Y020750D01*
X022930Y020367D02*
X022853Y020290D01*
X022853Y020136D02*
X022470Y020136D01*
X022853Y020136D02*
X022930Y020060D01*
X022930Y019906D01*
X022853Y019829D01*
X022470Y019829D01*
X023970Y019881D02*
X023970Y019651D01*
X024430Y019651D01*
X024277Y019651D02*
X024277Y019881D01*
X024200Y019958D01*
X024046Y019958D01*
X023970Y019881D01*
X024277Y019805D02*
X024430Y019958D01*
X024353Y019498D02*
X024046Y019498D01*
X023970Y019421D01*
X023970Y019191D01*
X024430Y019191D01*
X024430Y019421D01*
X024353Y019498D01*
X024353Y019037D02*
X024046Y019037D01*
X023970Y018961D01*
X023970Y018730D01*
X024430Y018730D01*
X024430Y018961D01*
X024353Y019037D01*
X024430Y018577D02*
X024123Y018577D01*
X023970Y018423D01*
X024123Y018270D01*
X024430Y018270D01*
X024200Y018270D02*
X024200Y018577D01*
X024970Y018500D02*
X024970Y018347D01*
X025046Y018270D01*
X025123Y018270D01*
X025200Y018347D01*
X025200Y018500D01*
X025277Y018577D01*
X025353Y018577D01*
X025430Y018500D01*
X025430Y018347D01*
X025353Y018270D01*
X025046Y018577D02*
X024970Y018500D01*
X024970Y018730D02*
X024970Y018961D01*
X025046Y019037D01*
X025353Y019037D01*
X025430Y018961D01*
X025430Y018730D01*
X024970Y018730D01*
X025123Y019191D02*
X024970Y019344D01*
X025123Y019498D01*
X025430Y019498D01*
X025200Y019498D02*
X025200Y019191D01*
X025123Y019191D02*
X025430Y019191D01*
X025970Y019191D02*
X026430Y019191D01*
X026430Y019498D01*
X026353Y019037D02*
X026430Y018961D01*
X026430Y018807D01*
X026353Y018730D01*
X026046Y018730D01*
X025970Y018807D01*
X025970Y018961D01*
X026046Y019037D01*
X026046Y018577D02*
X025970Y018500D01*
X025970Y018347D01*
X026046Y018270D01*
X026123Y018270D01*
X026200Y018347D01*
X026200Y018500D01*
X026277Y018577D01*
X026353Y018577D01*
X026430Y018500D01*
X026430Y018347D01*
X026353Y018270D01*
X026970Y018347D02*
X027046Y018270D01*
X027353Y018270D01*
X027430Y018347D01*
X027430Y018500D01*
X027353Y018577D01*
X027200Y018577D01*
X027200Y018423D01*
X027046Y018577D02*
X026970Y018500D01*
X026970Y018347D01*
X026970Y018730D02*
X027430Y019037D01*
X026970Y019037D01*
X026970Y019191D02*
X026970Y019421D01*
X027046Y019498D01*
X027353Y019498D01*
X027430Y019421D01*
X027430Y019191D01*
X026970Y019191D01*
X026970Y018730D02*
X027430Y018730D01*
X027970Y018807D02*
X028046Y018730D01*
X028353Y018730D01*
X028430Y018807D01*
X028430Y018961D01*
X028353Y019037D01*
X028353Y019191D02*
X028046Y019191D01*
X027970Y019268D01*
X027970Y019421D01*
X028046Y019498D01*
X028353Y019498D02*
X028430Y019421D01*
X028430Y019268D01*
X028353Y019191D01*
X028046Y019037D02*
X027970Y018961D01*
X027970Y018807D01*
X027970Y018577D02*
X028277Y018577D01*
X028430Y018423D01*
X028277Y018270D01*
X027970Y018270D01*
X024180Y005480D02*
X024027Y005480D01*
X023950Y005404D01*
X023797Y005404D02*
X023720Y005480D01*
X023567Y005480D01*
X023490Y005404D01*
X023490Y005327D01*
X023567Y005250D01*
X023720Y005250D01*
X023797Y005173D01*
X023797Y005097D01*
X023720Y005020D01*
X023567Y005020D01*
X023490Y005097D01*
X023336Y005097D02*
X023336Y005480D01*
X023029Y005480D02*
X023029Y005097D01*
X023106Y005020D01*
X023260Y005020D01*
X023336Y005097D01*
X023643Y004943D02*
X023643Y005557D01*
X024104Y005250D02*
X024180Y005250D01*
X024257Y005173D01*
X024257Y005097D01*
X024180Y005020D01*
X024027Y005020D01*
X023950Y005097D01*
X024180Y005250D02*
X024257Y005327D01*
X024257Y005404D01*
X024180Y005480D01*
D14*
X028200Y006750D02*
X028450Y006500D01*
X028950Y006500D01*
X029200Y006750D01*
X029200Y007250D01*
X028950Y007500D01*
X029200Y007750D01*
X029200Y008250D01*
X028950Y008500D01*
X029200Y008750D01*
X029200Y009250D01*
X028950Y009500D01*
X029200Y009750D01*
X029200Y010250D01*
X028950Y010500D01*
X029200Y010750D01*
X029200Y011250D01*
X028950Y011500D01*
X029200Y011750D01*
X029200Y012250D01*
X028950Y012500D01*
X028450Y012500D01*
X028200Y012250D01*
X028200Y011750D01*
X028450Y011500D01*
X028200Y011250D01*
X028200Y010750D01*
X028450Y010500D01*
X028200Y010250D01*
X028200Y009750D01*
X028450Y009500D01*
X028200Y009250D01*
X028200Y008750D01*
X028450Y008500D01*
X028200Y008250D01*
X028200Y007750D01*
X028450Y007500D01*
X028200Y007250D01*
X028200Y006750D01*
X015708Y019433D02*
X012692Y019433D01*
D15*
X012649Y019571D02*
X012649Y018429D01*
X015751Y018429D01*
X015751Y019571D01*
X012649Y019571D01*
M02*
