G04 EAGLE Gerber X2 export*
%TF.Part,Single*%
%TF.FileFunction,Copper,L1,Top,Mixed*%
%TF.FilePolarity,Positive*%
%TF.GenerationSoftware,Autodesk,EAGLE,9.0.1*%
%TF.CreationDate,2019-03-28T19:52:48Z*%
G75*
%MOMM*%
%FSLAX34Y34*%
%LPD*%
%AMOC8*
5,1,8,0,0,1.08239X$1,22.5*%
G01*
%ADD10P,1.814519X8X22.500000*%
%ADD11R,1.308000X1.308000*%
%ADD12C,1.308000*%
%ADD13R,1.508000X1.508000*%
%ADD14C,1.508000*%
%ADD15C,1.524000*%
%ADD16C,1.800000*%


D10*
X533400Y774700D03*
X508000Y292100D03*
X558800Y774700D03*
X584200Y774700D03*
X609600Y774700D03*
X635000Y774700D03*
X508000Y774700D03*
X482600Y774700D03*
X457200Y774700D03*
X416560Y774700D03*
X391160Y774700D03*
X365760Y774700D03*
X340360Y774700D03*
X314960Y774700D03*
X289560Y774700D03*
X264160Y774700D03*
X238760Y774700D03*
X533400Y292100D03*
X558800Y292100D03*
X584200Y292100D03*
X609600Y292100D03*
X635000Y292100D03*
X457200Y292100D03*
X431800Y292100D03*
X406400Y292100D03*
X381000Y292100D03*
X355600Y292100D03*
X330200Y292100D03*
D11*
X495300Y342900D03*
D12*
X520700Y342900D03*
X546100Y342900D03*
X571500Y342900D03*
D13*
X647700Y698500D03*
D14*
X622300Y698500D03*
X596900Y698500D03*
X571500Y698500D03*
X546100Y698500D03*
D13*
X203200Y336550D03*
D14*
X228600Y336550D03*
X254000Y336550D03*
X279400Y336550D03*
X304800Y336550D03*
D15*
X652780Y431800D02*
X668020Y431800D01*
X668020Y457200D02*
X652780Y457200D01*
X652780Y482600D02*
X668020Y482600D01*
X668020Y508000D02*
X652780Y508000D01*
X652780Y533400D02*
X668020Y533400D01*
X668020Y558800D02*
X652780Y558800D01*
D16*
X266700Y727600D02*
X266700Y745600D01*
X292100Y745600D02*
X292100Y727600D01*
X317500Y727600D02*
X317500Y745600D01*
M02*
