G04 EAGLE Gerber X2 export*
%TF.Part,Single*%
%TF.FileFunction,Copper,L2,Bot,Mixed*%
%TF.FilePolarity,Positive*%
%TF.GenerationSoftware,Autodesk,EAGLE,9.0.1*%
%TF.CreationDate,2019-03-28T19:52:48Z*%
G75*
%MOMM*%
%FSLAX34Y34*%
%LPD*%
%AMOC8*
5,1,8,0,0,1.08239X$1,22.5*%
G01*
%ADD10P,1.814519X8X22.500000*%
%ADD11R,1.308000X1.308000*%
%ADD12C,1.308000*%
%ADD13R,1.508000X1.508000*%
%ADD14C,1.508000*%
%ADD15C,1.524000*%
%ADD16C,1.800000*%
%ADD17C,0.254000*%
%ADD18C,0.406400*%
%ADD19C,0.152400*%
%ADD20C,0.203200*%


D10*
X533400Y774700D03*
X508000Y292100D03*
X558800Y774700D03*
X584200Y774700D03*
X609600Y774700D03*
X635000Y774700D03*
X508000Y774700D03*
X482600Y774700D03*
X457200Y774700D03*
X416560Y774700D03*
X391160Y774700D03*
X365760Y774700D03*
X340360Y774700D03*
X314960Y774700D03*
X289560Y774700D03*
X264160Y774700D03*
X238760Y774700D03*
X533400Y292100D03*
X558800Y292100D03*
X584200Y292100D03*
X609600Y292100D03*
X635000Y292100D03*
X457200Y292100D03*
X431800Y292100D03*
X406400Y292100D03*
X381000Y292100D03*
X355600Y292100D03*
X330200Y292100D03*
D11*
X495300Y342900D03*
D12*
X520700Y342900D03*
X546100Y342900D03*
X571500Y342900D03*
D13*
X647700Y698500D03*
D14*
X622300Y698500D03*
X596900Y698500D03*
X571500Y698500D03*
X546100Y698500D03*
D13*
X203200Y336550D03*
D14*
X228600Y336550D03*
X254000Y336550D03*
X279400Y336550D03*
X304800Y336550D03*
D15*
X652780Y431800D02*
X668020Y431800D01*
X668020Y457200D02*
X652780Y457200D01*
X652780Y482600D02*
X668020Y482600D01*
X668020Y508000D02*
X652780Y508000D01*
X652780Y533400D02*
X668020Y533400D01*
X668020Y558800D02*
X652780Y558800D01*
D16*
X266700Y727600D02*
X266700Y745600D01*
X292100Y745600D02*
X292100Y727600D01*
X317500Y727600D02*
X317500Y745600D01*
D17*
X265430Y738378D02*
X265430Y772668D01*
X264160Y774700D01*
X265430Y738378D02*
X266700Y736600D01*
X407162Y772668D02*
X416306Y772668D01*
X416560Y774700D01*
X407162Y772668D02*
X393446Y758952D01*
X313436Y758952D01*
X292862Y738378D01*
X292100Y736600D01*
X432308Y772668D02*
X455168Y772668D01*
X432308Y772668D02*
X398018Y738378D01*
X318008Y738378D01*
X455168Y772668D02*
X457200Y774700D01*
X318008Y738378D02*
X317500Y736600D01*
X546608Y699516D02*
X562610Y728218D01*
X606044Y728218D01*
X622046Y699516D01*
X546608Y699516D02*
X546100Y698500D01*
X622046Y699516D02*
X622300Y698500D01*
X660908Y457200D02*
X660908Y432054D01*
X660400Y431800D01*
X660400Y457200D02*
X660908Y457200D01*
X571500Y342900D02*
X560324Y342900D01*
X548894Y354330D01*
X546608Y354330D02*
X516890Y354330D01*
X546608Y354330D02*
X548894Y354330D01*
X516890Y354330D02*
X505460Y342900D01*
X505460Y333756D01*
X475742Y304038D01*
X418592Y304038D01*
X407162Y292608D01*
X406400Y292100D01*
X286004Y278892D02*
X228854Y336042D01*
X286004Y278892D02*
X393446Y278892D01*
X404876Y290322D01*
X228854Y336042D02*
X228600Y336550D01*
X404876Y290322D02*
X406400Y292100D01*
X658622Y297180D02*
X658622Y429768D01*
X658622Y297180D02*
X635762Y274320D01*
X583184Y274320D01*
X571754Y285750D01*
X571754Y342900D01*
X658622Y429768D02*
X660400Y431800D01*
X571754Y342900D02*
X571500Y342900D01*
X546608Y354330D02*
X546608Y697230D01*
X546100Y698500D01*
D18*
X660400Y558800D02*
X673100Y558800D01*
X685800Y546100D01*
X685800Y482600D01*
X660400Y457200D01*
D17*
X519176Y342900D02*
X519176Y336042D01*
X457454Y274320D01*
X244856Y274320D01*
X192278Y326898D01*
X192278Y347472D01*
X196850Y352044D01*
X254000Y352044D01*
X267716Y338328D01*
X267716Y331470D01*
X274574Y324612D01*
X283718Y324612D01*
X292862Y333756D01*
X292862Y561340D01*
X482600Y751078D01*
X482600Y774700D01*
X519176Y342900D02*
X520700Y342900D01*
X587756Y699516D02*
X596900Y699516D01*
X587756Y699516D02*
X576326Y710946D01*
X567182Y710946D01*
X560324Y704088D01*
X560324Y368046D01*
X596900Y331470D01*
X596900Y288036D01*
X606044Y278892D01*
X622046Y278892D01*
X633476Y290322D01*
X596900Y698500D02*
X596900Y699516D01*
X635000Y292100D02*
X633476Y290322D01*
X635762Y459486D02*
X658622Y482346D01*
X635762Y459486D02*
X635762Y292608D01*
X658622Y482346D02*
X660400Y482600D01*
X635762Y292608D02*
X635000Y292100D01*
X571754Y596646D02*
X571754Y697230D01*
X571754Y596646D02*
X660400Y508000D01*
X571754Y697230D02*
X571500Y698500D01*
X610616Y459486D02*
X610616Y292608D01*
X610616Y459486D02*
X658622Y507492D01*
X610616Y292608D02*
X609600Y292100D01*
X658622Y507492D02*
X660400Y508000D01*
X495300Y342900D02*
X432308Y342900D01*
X382016Y292608D01*
X381000Y292100D01*
X638048Y699516D02*
X647192Y699516D01*
X638048Y699516D02*
X617474Y745490D01*
X551180Y745490D01*
X496316Y665226D01*
X496316Y342900D01*
X647700Y698500D02*
X647192Y699516D01*
X496316Y342900D02*
X495300Y342900D01*
X212852Y338328D02*
X203708Y338328D01*
X212852Y338328D02*
X221996Y347472D01*
X233426Y347472D01*
X242570Y338328D01*
X242570Y331470D01*
X270002Y304038D01*
X343154Y304038D01*
X354584Y292608D01*
X203200Y336550D02*
X203708Y338328D01*
X354584Y292608D02*
X355600Y292100D01*
X631190Y562356D02*
X658622Y534924D01*
X631190Y562356D02*
X631190Y635254D01*
X684022Y675386D01*
X684022Y708660D01*
X642620Y762762D01*
X548894Y762762D01*
X372872Y586740D01*
X372872Y333756D01*
X343154Y304038D01*
X658622Y534924D02*
X660400Y533400D01*
X270002Y320040D02*
X254000Y336042D01*
X270002Y320040D02*
X304292Y320040D01*
X315722Y331470D01*
X315722Y555498D01*
X532892Y772668D01*
X254000Y336550D02*
X254000Y336042D01*
X532892Y772668D02*
X533400Y774700D01*
X475742Y786384D02*
X468884Y779526D01*
X475742Y786384D02*
X546608Y786384D01*
X558038Y774954D01*
X281432Y338328D02*
X279400Y336550D01*
X558038Y774954D02*
X558800Y774700D01*
D19*
X468884Y779526D02*
X468376Y779018D01*
X468376Y770071D01*
D20*
X395253Y696947D01*
D17*
X369387Y671082D01*
X279400Y581095D02*
X279400Y336550D01*
X318248Y655897D02*
X333433Y671082D01*
X318248Y619943D02*
X279400Y581095D01*
X333433Y671082D02*
X369387Y671082D01*
X318248Y655897D02*
X318248Y619943D01*
M02*
