M48
;GenerationSoftware,Autodesk,EAGLE,9.0.1*%
;CreationDate,2019-03-28T19:28:24Z*%
FMAT,2
ICI,OFF
METRIC,TZ,000.000
T7C0.800
T6C1.000
T5C1.016
T4C1.200
T3C3.000
T2C3.200
T1C3.500
%
G90
M71
T1
X27940Y63881
T2
X15240Y77470
X66040Y62230
X13970Y29210
T3
X55245Y83820
X64135Y83820
X16383Y34544
X34417Y34544
X34417Y64516
X16383Y64516
T4
X26670Y73660
X31750Y73660
X29210Y73660
T5
X66040Y43180
X66040Y48260
X66040Y50800
X66040Y53340
X66040Y55880
X66040Y45720
T6
X53340Y77470
X50800Y29210
X55880Y77470
X58420Y77470
X60960Y77470
X63500Y77470
X50800Y77470
X48260Y77470
X45720Y77470
X41656Y77470
X39116Y77470
X36576Y77470
X34036Y77470
X31496Y77470
X28956Y77470
X26416Y77470
X23876Y77470
X35560Y29210
X33020Y29210
X53340Y29210
X54610Y69850
X57150Y69850
X64770Y69850
X62230Y69850
X59690Y69850
X58420Y29210
X20320Y33655
X22860Y33655
X25400Y33655
X27940Y33655
X30480Y33655
X63500Y29210
X60960Y29210
X45720Y29210
X43180Y29210
X40640Y29210
X38100Y29210
X55880Y29210
T7
X49530Y34290
X52070Y34290
X54610Y34290
X57150Y34290
M30