G04 EAGLE Gerber X2 export*
%TF.Part,Single*%
%TF.FileFunction,Profile,NP*%
%TF.FilePolarity,Positive*%
%TF.GenerationSoftware,Autodesk,EAGLE,9.0.1*%
%TF.CreationDate,2019-03-28T19:28:24Z*%
G75*
%MOMM*%
%FSLAX34Y34*%
%LPD*%
%AMOC8*
5,1,8,0,0,1.08239X$1,22.5*%
G01*
%ADD10C,0.254000*%


D10*
X127000Y266700D02*
X695200Y266700D01*
X695200Y800000D01*
X127000Y800000D01*
X127000Y266700D01*
X168400Y774176D02*
X168332Y773131D01*
X168195Y772092D01*
X167990Y771065D01*
X167719Y770053D01*
X167383Y769061D01*
X166982Y768093D01*
X166518Y767154D01*
X165995Y766246D01*
X165413Y765375D01*
X164775Y764544D01*
X164084Y763757D01*
X163343Y763016D01*
X162556Y762325D01*
X161725Y761688D01*
X160854Y761106D01*
X159946Y760582D01*
X159007Y760118D01*
X158039Y759717D01*
X157047Y759381D01*
X156035Y759110D01*
X155008Y758905D01*
X153969Y758769D01*
X152924Y758700D01*
X151876Y758700D01*
X150831Y758769D01*
X149792Y758905D01*
X148765Y759110D01*
X147753Y759381D01*
X146761Y759717D01*
X145793Y760118D01*
X144854Y760582D01*
X143946Y761106D01*
X143075Y761688D01*
X142244Y762325D01*
X141457Y763016D01*
X140716Y763757D01*
X140025Y764544D01*
X139388Y765375D01*
X138806Y766246D01*
X138282Y767154D01*
X137818Y768093D01*
X137417Y769061D01*
X137081Y770053D01*
X136810Y771065D01*
X136605Y772092D01*
X136469Y773131D01*
X136400Y774176D01*
X136400Y775224D01*
X136469Y776269D01*
X136605Y777308D01*
X136810Y778335D01*
X137081Y779347D01*
X137417Y780339D01*
X137818Y781307D01*
X138282Y782246D01*
X138806Y783154D01*
X139388Y784025D01*
X140025Y784856D01*
X140716Y785643D01*
X141457Y786384D01*
X142244Y787075D01*
X143075Y787713D01*
X143946Y788295D01*
X144854Y788818D01*
X145793Y789282D01*
X146761Y789683D01*
X147753Y790019D01*
X148765Y790290D01*
X149792Y790495D01*
X150831Y790632D01*
X151876Y790700D01*
X152924Y790700D01*
X153969Y790632D01*
X155008Y790495D01*
X156035Y790290D01*
X157047Y790019D01*
X158039Y789683D01*
X159007Y789282D01*
X159946Y788818D01*
X160854Y788295D01*
X161725Y787713D01*
X162556Y787075D01*
X163343Y786384D01*
X164084Y785643D01*
X164775Y784856D01*
X165413Y784025D01*
X165995Y783154D01*
X166518Y782246D01*
X166982Y781307D01*
X167383Y780339D01*
X167719Y779347D01*
X167990Y778335D01*
X168195Y777308D01*
X168332Y776269D01*
X168400Y775224D01*
X168400Y774176D01*
X676400Y621776D02*
X676332Y620731D01*
X676195Y619692D01*
X675990Y618665D01*
X675719Y617653D01*
X675383Y616661D01*
X674982Y615693D01*
X674518Y614754D01*
X673995Y613846D01*
X673413Y612975D01*
X672775Y612144D01*
X672084Y611357D01*
X671343Y610616D01*
X670556Y609925D01*
X669725Y609288D01*
X668854Y608706D01*
X667946Y608182D01*
X667007Y607718D01*
X666039Y607317D01*
X665047Y606981D01*
X664035Y606710D01*
X663008Y606505D01*
X661969Y606369D01*
X660924Y606300D01*
X659876Y606300D01*
X658831Y606369D01*
X657792Y606505D01*
X656765Y606710D01*
X655753Y606981D01*
X654761Y607317D01*
X653793Y607718D01*
X652854Y608182D01*
X651946Y608706D01*
X651075Y609288D01*
X650244Y609925D01*
X649457Y610616D01*
X648716Y611357D01*
X648025Y612144D01*
X647388Y612975D01*
X646806Y613846D01*
X646282Y614754D01*
X645818Y615693D01*
X645417Y616661D01*
X645081Y617653D01*
X644810Y618665D01*
X644605Y619692D01*
X644469Y620731D01*
X644400Y621776D01*
X644400Y622824D01*
X644469Y623869D01*
X644605Y624908D01*
X644810Y625935D01*
X645081Y626947D01*
X645417Y627939D01*
X645818Y628907D01*
X646282Y629846D01*
X646806Y630754D01*
X647388Y631625D01*
X648025Y632456D01*
X648716Y633243D01*
X649457Y633984D01*
X650244Y634675D01*
X651075Y635313D01*
X651946Y635895D01*
X652854Y636418D01*
X653793Y636882D01*
X654761Y637283D01*
X655753Y637619D01*
X656765Y637890D01*
X657792Y638095D01*
X658831Y638232D01*
X659876Y638300D01*
X660924Y638300D01*
X661969Y638232D01*
X663008Y638095D01*
X664035Y637890D01*
X665047Y637619D01*
X666039Y637283D01*
X667007Y636882D01*
X667946Y636418D01*
X668854Y635895D01*
X669725Y635313D01*
X670556Y634675D01*
X671343Y633984D01*
X672084Y633243D01*
X672775Y632456D01*
X673413Y631625D01*
X673995Y630754D01*
X674518Y629846D01*
X674982Y628907D01*
X675383Y627939D01*
X675719Y626947D01*
X675990Y625935D01*
X676195Y624908D01*
X676332Y623869D01*
X676400Y622824D01*
X676400Y621776D01*
X155700Y291576D02*
X155632Y290531D01*
X155495Y289492D01*
X155290Y288465D01*
X155019Y287453D01*
X154683Y286461D01*
X154282Y285493D01*
X153818Y284554D01*
X153295Y283646D01*
X152713Y282775D01*
X152075Y281944D01*
X151384Y281157D01*
X150643Y280416D01*
X149856Y279725D01*
X149025Y279088D01*
X148154Y278506D01*
X147246Y277982D01*
X146307Y277518D01*
X145339Y277117D01*
X144347Y276781D01*
X143335Y276510D01*
X142308Y276305D01*
X141269Y276169D01*
X140224Y276100D01*
X139176Y276100D01*
X138131Y276169D01*
X137092Y276305D01*
X136065Y276510D01*
X135053Y276781D01*
X134061Y277117D01*
X133093Y277518D01*
X132154Y277982D01*
X131246Y278506D01*
X130375Y279088D01*
X129544Y279725D01*
X128757Y280416D01*
X128016Y281157D01*
X127325Y281944D01*
X126688Y282775D01*
X126106Y283646D01*
X125582Y284554D01*
X125118Y285493D01*
X124717Y286461D01*
X124381Y287453D01*
X124110Y288465D01*
X123905Y289492D01*
X123769Y290531D01*
X123700Y291576D01*
X123700Y292624D01*
X123769Y293669D01*
X123905Y294708D01*
X124110Y295735D01*
X124381Y296747D01*
X124717Y297739D01*
X125118Y298707D01*
X125582Y299646D01*
X126106Y300554D01*
X126688Y301425D01*
X127325Y302256D01*
X128016Y303043D01*
X128757Y303784D01*
X129544Y304475D01*
X130375Y305113D01*
X131246Y305695D01*
X132154Y306218D01*
X133093Y306682D01*
X134061Y307083D01*
X135053Y307419D01*
X136065Y307690D01*
X137092Y307895D01*
X138131Y308032D01*
X139176Y308100D01*
X140224Y308100D01*
X141269Y308032D01*
X142308Y307895D01*
X143335Y307690D01*
X144347Y307419D01*
X145339Y307083D01*
X146307Y306682D01*
X147246Y306218D01*
X148154Y305695D01*
X149025Y305113D01*
X149856Y304475D01*
X150643Y303784D01*
X151384Y303043D01*
X152075Y302256D01*
X152713Y301425D01*
X153295Y300554D01*
X153818Y299646D01*
X154282Y298707D01*
X154683Y297739D01*
X155019Y296747D01*
X155290Y295735D01*
X155495Y294708D01*
X155632Y293669D01*
X155700Y292624D01*
X155700Y291576D01*
X552986Y853200D02*
X554054Y853124D01*
X555115Y852971D01*
X556162Y852743D01*
X557190Y852441D01*
X558194Y852067D01*
X559169Y851622D01*
X560109Y851108D01*
X561010Y850529D01*
X561868Y849887D01*
X562678Y849185D01*
X563435Y848428D01*
X564137Y847618D01*
X564779Y846760D01*
X565358Y845859D01*
X565872Y844919D01*
X566317Y843944D01*
X566691Y842940D01*
X566993Y841912D01*
X567221Y840865D01*
X567374Y839804D01*
X567450Y838736D01*
X567450Y837664D01*
X567374Y836596D01*
X567221Y835535D01*
X566993Y834488D01*
X566691Y833460D01*
X566317Y832456D01*
X565872Y831481D01*
X565358Y830541D01*
X564779Y829640D01*
X564137Y828782D01*
X563435Y827972D01*
X562678Y827215D01*
X561868Y826513D01*
X561010Y825871D01*
X560109Y825292D01*
X559169Y824778D01*
X558194Y824333D01*
X557190Y823959D01*
X556162Y823657D01*
X555115Y823429D01*
X554054Y823276D01*
X552986Y823200D01*
X551914Y823200D01*
X550846Y823276D01*
X549785Y823429D01*
X548738Y823657D01*
X547710Y823959D01*
X546706Y824333D01*
X545731Y824778D01*
X544791Y825292D01*
X543890Y825871D01*
X543032Y826513D01*
X542222Y827215D01*
X541465Y827972D01*
X540763Y828782D01*
X540121Y829640D01*
X539542Y830541D01*
X539028Y831481D01*
X538583Y832456D01*
X538209Y833460D01*
X537907Y834488D01*
X537679Y835535D01*
X537526Y836596D01*
X537450Y837664D01*
X537450Y838736D01*
X537526Y839804D01*
X537679Y840865D01*
X537907Y841912D01*
X538209Y842940D01*
X538583Y843944D01*
X539028Y844919D01*
X539542Y845859D01*
X540121Y846760D01*
X540763Y847618D01*
X541465Y848428D01*
X542222Y849185D01*
X543032Y849887D01*
X543890Y850529D01*
X544791Y851108D01*
X545731Y851622D01*
X546706Y852067D01*
X547710Y852441D01*
X548738Y852743D01*
X549785Y852971D01*
X550846Y853124D01*
X551914Y853200D01*
X552986Y853200D01*
X641886Y853200D02*
X642954Y853124D01*
X644015Y852971D01*
X645062Y852743D01*
X646090Y852441D01*
X647094Y852067D01*
X648069Y851622D01*
X649009Y851108D01*
X649910Y850529D01*
X650768Y849887D01*
X651578Y849185D01*
X652335Y848428D01*
X653037Y847618D01*
X653679Y846760D01*
X654258Y845859D01*
X654772Y844919D01*
X655217Y843944D01*
X655591Y842940D01*
X655893Y841912D01*
X656121Y840865D01*
X656274Y839804D01*
X656350Y838736D01*
X656350Y837664D01*
X656274Y836596D01*
X656121Y835535D01*
X655893Y834488D01*
X655591Y833460D01*
X655217Y832456D01*
X654772Y831481D01*
X654258Y830541D01*
X653679Y829640D01*
X653037Y828782D01*
X652335Y827972D01*
X651578Y827215D01*
X650768Y826513D01*
X649910Y825871D01*
X649009Y825292D01*
X648069Y824778D01*
X647094Y824333D01*
X646090Y823959D01*
X645062Y823657D01*
X644015Y823429D01*
X642954Y823276D01*
X641886Y823200D01*
X640814Y823200D01*
X639746Y823276D01*
X638685Y823429D01*
X637638Y823657D01*
X636610Y823959D01*
X635606Y824333D01*
X634631Y824778D01*
X633691Y825292D01*
X632790Y825871D01*
X631932Y826513D01*
X631122Y827215D01*
X630365Y827972D01*
X629663Y828782D01*
X629021Y829640D01*
X628442Y830541D01*
X627928Y831481D01*
X627483Y832456D01*
X627109Y833460D01*
X626807Y834488D01*
X626579Y835535D01*
X626426Y836596D01*
X626350Y837664D01*
X626350Y838736D01*
X626426Y839804D01*
X626579Y840865D01*
X626807Y841912D01*
X627109Y842940D01*
X627483Y843944D01*
X627928Y844919D01*
X628442Y845859D01*
X629021Y846760D01*
X629663Y847618D01*
X630365Y848428D01*
X631122Y849185D01*
X631932Y849887D01*
X632790Y850529D01*
X633691Y851108D01*
X634631Y851622D01*
X635606Y852067D01*
X636610Y852441D01*
X637638Y852743D01*
X638685Y852971D01*
X639746Y853124D01*
X640814Y853200D01*
X641886Y853200D01*
X164366Y360440D02*
X165434Y360364D01*
X166495Y360211D01*
X167542Y359983D01*
X168570Y359681D01*
X169574Y359307D01*
X170549Y358862D01*
X171489Y358348D01*
X172390Y357769D01*
X173248Y357127D01*
X174058Y356425D01*
X174815Y355668D01*
X175517Y354858D01*
X176159Y354000D01*
X176738Y353099D01*
X177252Y352159D01*
X177697Y351184D01*
X178071Y350180D01*
X178373Y349152D01*
X178601Y348105D01*
X178754Y347044D01*
X178830Y345976D01*
X178830Y344904D01*
X178754Y343836D01*
X178601Y342775D01*
X178373Y341728D01*
X178071Y340700D01*
X177697Y339696D01*
X177252Y338721D01*
X176738Y337781D01*
X176159Y336880D01*
X175517Y336022D01*
X174815Y335212D01*
X174058Y334455D01*
X173248Y333753D01*
X172390Y333111D01*
X171489Y332532D01*
X170549Y332018D01*
X169574Y331573D01*
X168570Y331199D01*
X167542Y330897D01*
X166495Y330669D01*
X165434Y330516D01*
X164366Y330440D01*
X163294Y330440D01*
X162226Y330516D01*
X161165Y330669D01*
X160118Y330897D01*
X159090Y331199D01*
X158086Y331573D01*
X157111Y332018D01*
X156171Y332532D01*
X155270Y333111D01*
X154412Y333753D01*
X153602Y334455D01*
X152845Y335212D01*
X152143Y336022D01*
X151501Y336880D01*
X150922Y337781D01*
X150408Y338721D01*
X149963Y339696D01*
X149589Y340700D01*
X149287Y341728D01*
X149059Y342775D01*
X148906Y343836D01*
X148830Y344904D01*
X148830Y345976D01*
X148906Y347044D01*
X149059Y348105D01*
X149287Y349152D01*
X149589Y350180D01*
X149963Y351184D01*
X150408Y352159D01*
X150922Y353099D01*
X151501Y354000D01*
X152143Y354858D01*
X152845Y355668D01*
X153602Y356425D01*
X154412Y357127D01*
X155270Y357769D01*
X156171Y358348D01*
X157111Y358862D01*
X158086Y359307D01*
X159090Y359681D01*
X160118Y359983D01*
X161165Y360211D01*
X162226Y360364D01*
X163294Y360440D01*
X164366Y360440D01*
X344706Y360440D02*
X345774Y360364D01*
X346835Y360211D01*
X347882Y359983D01*
X348910Y359681D01*
X349914Y359307D01*
X350889Y358862D01*
X351829Y358348D01*
X352730Y357769D01*
X353588Y357127D01*
X354398Y356425D01*
X355155Y355668D01*
X355857Y354858D01*
X356499Y354000D01*
X357078Y353099D01*
X357592Y352159D01*
X358037Y351184D01*
X358411Y350180D01*
X358713Y349152D01*
X358941Y348105D01*
X359094Y347044D01*
X359170Y345976D01*
X359170Y344904D01*
X359094Y343836D01*
X358941Y342775D01*
X358713Y341728D01*
X358411Y340700D01*
X358037Y339696D01*
X357592Y338721D01*
X357078Y337781D01*
X356499Y336880D01*
X355857Y336022D01*
X355155Y335212D01*
X354398Y334455D01*
X353588Y333753D01*
X352730Y333111D01*
X351829Y332532D01*
X350889Y332018D01*
X349914Y331573D01*
X348910Y331199D01*
X347882Y330897D01*
X346835Y330669D01*
X345774Y330516D01*
X344706Y330440D01*
X343634Y330440D01*
X342566Y330516D01*
X341505Y330669D01*
X340458Y330897D01*
X339430Y331199D01*
X338426Y331573D01*
X337451Y332018D01*
X336511Y332532D01*
X335610Y333111D01*
X334752Y333753D01*
X333942Y334455D01*
X333185Y335212D01*
X332483Y336022D01*
X331841Y336880D01*
X331262Y337781D01*
X330748Y338721D01*
X330303Y339696D01*
X329929Y340700D01*
X329627Y341728D01*
X329399Y342775D01*
X329246Y343836D01*
X329170Y344904D01*
X329170Y345976D01*
X329246Y347044D01*
X329399Y348105D01*
X329627Y349152D01*
X329929Y350180D01*
X330303Y351184D01*
X330748Y352159D01*
X331262Y353099D01*
X331841Y354000D01*
X332483Y354858D01*
X333185Y355668D01*
X333942Y356425D01*
X334752Y357127D01*
X335610Y357769D01*
X336511Y358348D01*
X337451Y358862D01*
X338426Y359307D01*
X339430Y359681D01*
X340458Y359983D01*
X341505Y360211D01*
X342566Y360364D01*
X343634Y360440D01*
X344706Y360440D01*
X344706Y660160D02*
X345774Y660084D01*
X346835Y659931D01*
X347882Y659703D01*
X348910Y659401D01*
X349914Y659027D01*
X350889Y658582D01*
X351829Y658068D01*
X352730Y657489D01*
X353588Y656847D01*
X354398Y656145D01*
X355155Y655388D01*
X355857Y654578D01*
X356499Y653720D01*
X357078Y652819D01*
X357592Y651879D01*
X358037Y650904D01*
X358411Y649900D01*
X358713Y648872D01*
X358941Y647825D01*
X359094Y646764D01*
X359170Y645696D01*
X359170Y644624D01*
X359094Y643556D01*
X358941Y642495D01*
X358713Y641448D01*
X358411Y640420D01*
X358037Y639416D01*
X357592Y638441D01*
X357078Y637501D01*
X356499Y636600D01*
X355857Y635742D01*
X355155Y634932D01*
X354398Y634175D01*
X353588Y633473D01*
X352730Y632831D01*
X351829Y632252D01*
X350889Y631738D01*
X349914Y631293D01*
X348910Y630919D01*
X347882Y630617D01*
X346835Y630389D01*
X345774Y630236D01*
X344706Y630160D01*
X343634Y630160D01*
X342566Y630236D01*
X341505Y630389D01*
X340458Y630617D01*
X339430Y630919D01*
X338426Y631293D01*
X337451Y631738D01*
X336511Y632252D01*
X335610Y632831D01*
X334752Y633473D01*
X333942Y634175D01*
X333185Y634932D01*
X332483Y635742D01*
X331841Y636600D01*
X331262Y637501D01*
X330748Y638441D01*
X330303Y639416D01*
X329929Y640420D01*
X329627Y641448D01*
X329399Y642495D01*
X329246Y643556D01*
X329170Y644624D01*
X329170Y645696D01*
X329246Y646764D01*
X329399Y647825D01*
X329627Y648872D01*
X329929Y649900D01*
X330303Y650904D01*
X330748Y651879D01*
X331262Y652819D01*
X331841Y653720D01*
X332483Y654578D01*
X333185Y655388D01*
X333942Y656145D01*
X334752Y656847D01*
X335610Y657489D01*
X336511Y658068D01*
X337451Y658582D01*
X338426Y659027D01*
X339430Y659401D01*
X340458Y659703D01*
X341505Y659931D01*
X342566Y660084D01*
X343634Y660160D01*
X344706Y660160D01*
X279973Y656310D02*
X281116Y656235D01*
X282252Y656086D01*
X283376Y655862D01*
X284483Y655565D01*
X285568Y655197D01*
X286626Y654759D01*
X287654Y654252D01*
X288646Y653679D01*
X289599Y653042D01*
X290508Y652345D01*
X291369Y651589D01*
X292179Y650779D01*
X292935Y649918D01*
X293632Y649009D01*
X294269Y648056D01*
X294842Y647064D01*
X295349Y646036D01*
X295787Y644978D01*
X296155Y643893D01*
X296452Y642786D01*
X296676Y641662D01*
X296825Y640526D01*
X296900Y639383D01*
X296900Y638237D01*
X296825Y637094D01*
X296676Y635958D01*
X296452Y634834D01*
X296155Y633727D01*
X295787Y632642D01*
X295349Y631584D01*
X294842Y630556D01*
X294269Y629564D01*
X293632Y628611D01*
X292935Y627702D01*
X292179Y626841D01*
X291369Y626031D01*
X290508Y625275D01*
X289599Y624578D01*
X288646Y623941D01*
X287654Y623368D01*
X286626Y622861D01*
X285568Y622423D01*
X284483Y622055D01*
X283376Y621758D01*
X282252Y621535D01*
X281116Y621385D01*
X279973Y621310D01*
X278827Y621310D01*
X277684Y621385D01*
X276548Y621535D01*
X275424Y621758D01*
X274317Y622055D01*
X273232Y622423D01*
X272174Y622861D01*
X271146Y623368D01*
X270154Y623941D01*
X269201Y624578D01*
X268292Y625275D01*
X267431Y626031D01*
X266621Y626841D01*
X265865Y627702D01*
X265168Y628611D01*
X264531Y629564D01*
X263958Y630556D01*
X263451Y631584D01*
X263013Y632642D01*
X262645Y633727D01*
X262348Y634834D01*
X262125Y635958D01*
X261975Y637094D01*
X261900Y638237D01*
X261900Y639383D01*
X261975Y640526D01*
X262125Y641662D01*
X262348Y642786D01*
X262645Y643893D01*
X263013Y644978D01*
X263451Y646036D01*
X263958Y647064D01*
X264531Y648056D01*
X265168Y649009D01*
X265865Y649918D01*
X266621Y650779D01*
X267431Y651589D01*
X268292Y652345D01*
X269201Y653042D01*
X270154Y653679D01*
X271146Y654252D01*
X272174Y654759D01*
X273232Y655197D01*
X274317Y655565D01*
X275424Y655862D01*
X276548Y656086D01*
X277684Y656235D01*
X278827Y656310D01*
X279973Y656310D01*
X164366Y660160D02*
X165434Y660084D01*
X166495Y659931D01*
X167542Y659703D01*
X168570Y659401D01*
X169574Y659027D01*
X170549Y658582D01*
X171489Y658068D01*
X172390Y657489D01*
X173248Y656847D01*
X174058Y656145D01*
X174815Y655388D01*
X175517Y654578D01*
X176159Y653720D01*
X176738Y652819D01*
X177252Y651879D01*
X177697Y650904D01*
X178071Y649900D01*
X178373Y648872D01*
X178601Y647825D01*
X178754Y646764D01*
X178830Y645696D01*
X178830Y644624D01*
X178754Y643556D01*
X178601Y642495D01*
X178373Y641448D01*
X178071Y640420D01*
X177697Y639416D01*
X177252Y638441D01*
X176738Y637501D01*
X176159Y636600D01*
X175517Y635742D01*
X174815Y634932D01*
X174058Y634175D01*
X173248Y633473D01*
X172390Y632831D01*
X171489Y632252D01*
X170549Y631738D01*
X169574Y631293D01*
X168570Y630919D01*
X167542Y630617D01*
X166495Y630389D01*
X165434Y630236D01*
X164366Y630160D01*
X163294Y630160D01*
X162226Y630236D01*
X161165Y630389D01*
X160118Y630617D01*
X159090Y630919D01*
X158086Y631293D01*
X157111Y631738D01*
X156171Y632252D01*
X155270Y632831D01*
X154412Y633473D01*
X153602Y634175D01*
X152845Y634932D01*
X152143Y635742D01*
X151501Y636600D01*
X150922Y637501D01*
X150408Y638441D01*
X149963Y639416D01*
X149589Y640420D01*
X149287Y641448D01*
X149059Y642495D01*
X148906Y643556D01*
X148830Y644624D01*
X148830Y645696D01*
X148906Y646764D01*
X149059Y647825D01*
X149287Y648872D01*
X149589Y649900D01*
X149963Y650904D01*
X150408Y651879D01*
X150922Y652819D01*
X151501Y653720D01*
X152143Y654578D01*
X152845Y655388D01*
X153602Y656145D01*
X154412Y656847D01*
X155270Y657489D01*
X156171Y658068D01*
X157111Y658582D01*
X158086Y659027D01*
X159090Y659401D01*
X160118Y659703D01*
X161165Y659931D01*
X162226Y660084D01*
X163294Y660160D01*
X164366Y660160D01*
M02*
